<svg width="29" height="20" viewBox="0 0 29 20" fill="none" xmlns="http://www.w3.org/2000/svg">
<path d="M12 8.99293C13.5143 8.17865 14.3048 6.9465 14.3048 5.02865C14.3048 1.2465 11.8 0.325073 8.90954 0.325073H0.952393V19.3108H9.13335C12.2 19.3108 15.081 17.6554 15.081 13.7983C15.081 11.4144 14.0762 9.65186 12 8.99293V8.99293ZM4.66192 3.56614H8.14287C9.48096 3.56614 10.6857 3.98936 10.6857 5.73579C10.6857 7.34829 9.74763 7.9965 8.42382 7.9965H4.66192V3.56614V3.56614ZM8.62858 16.0858H4.66192V10.8572H8.70477C10.3381 10.8572 11.3714 11.6233 11.3714 13.5679C11.3714 15.4858 10.1381 16.0858 8.62858 16.0858V16.0858ZM25.7 3.19114H18.8572V1.3215H25.7V3.19114V3.19114ZM28.381 12.6358C28.381 8.56972 26.2667 5.17865 22.4333 5.17865C18.7095 5.17865 16.181 8.32865 16.181 12.4536C16.181 16.734 18.5762 19.6697 22.4333 19.6697C25.3524 19.6697 27.2429 18.1911 28.1524 15.0465H25.1905C24.8714 16.2197 23.5572 16.8411 22.5381 16.8411C20.5714 16.8411 19.5381 15.5447 19.5381 13.3429H28.3524C28.3667 13.1179 28.381 12.8769 28.381 12.6358ZM19.5429 10.9644C19.6524 9.159 20.7191 8.02865 22.3286 8.02865C24.0143 8.02865 24.8619 9.14293 25.0048 10.9644H19.5429Z" fill="white"/>
</svg>
