<svg width="68" height="64" viewBox="0 0 68 64" fill="none" xmlns="http://www.w3.org/2000/svg">
<path d="M0.666626 6.66667C0.666626 4.89856 1.369 3.20286 2.61925 1.95262C3.86949 0.702379 5.56518 0 7.33329 0H60.6666C62.4347 0 64.1304 0.702379 65.3807 1.95262C66.6309 3.20286 67.3333 4.89856 67.3333 6.66667V43.3333C67.3333 45.1014 66.6309 46.7971 65.3807 48.0474C64.1304 49.2976 62.4347 50 60.6666 50H37.3333V56.6667H47.3333C48.2173 56.6667 49.0652 57.0179 49.6903 57.643C50.3154 58.2681 50.6666 59.1159 50.6666 60C50.6666 60.8841 50.3154 61.7319 49.6903 62.357C49.0652 62.9821 48.2173 63.3333 47.3333 63.3333H20.6666C19.7826 63.3333 18.9347 62.9821 18.3096 62.357C17.6845 61.7319 17.3333 60.8841 17.3333 60C17.3333 59.1159 17.6845 58.2681 18.3096 57.643C18.9347 57.0179 19.7826 56.6667 20.6666 56.6667H30.6666V50H7.33329C5.56518 50 3.86949 49.2976 2.61925 48.0474C1.369 46.7971 0.666626 45.1014 0.666626 43.3333V6.66667ZM60.6666 43.3333V6.66667H7.33329V43.3333H60.6666Z" fill="white"/>
</svg>
