<svg width="27" height="28" viewBox="0 0 27 28" fill="none" xmlns="http://www.w3.org/2000/svg">
<path d="M13.3333 0.714355C6.00754 0.714355 0.0476074 6.67428 0.0476074 14.0001C0.0476074 21.3259 6.00754 27.2858 13.3333 27.2858C20.6591 27.2858 26.619 21.3259 26.619 14.0001C26.619 6.67428 20.6591 0.714355 13.3333 0.714355ZM22.1174 6.84111C23.6979 8.77214 24.6551 11.2317 24.68 13.9101C24.3059 13.831 20.5541 13.07 16.7781 13.5449C16.47 12.7927 16.1791 12.131 15.7808 11.3156C19.9766 9.6025 21.8782 7.16473 22.1174 6.84111V6.84111ZM20.8559 5.52882C20.6518 5.81955 18.9435 8.11557 14.9083 9.62805C13.0488 6.21148 10.9877 3.40477 10.674 2.98477C14.2728 2.11728 18.0651 3.0528 20.8559 5.52882V5.52882ZM8.50873 3.74757C8.80793 4.15787 10.8358 6.96807 12.7161 10.3106C7.40784 11.7202 2.7325 11.6999 2.22496 11.6932C2.96082 8.17177 5.33393 5.24505 8.50873 3.74757ZM1.98529 14.0174C1.98529 13.9013 1.98759 13.7858 1.99107 13.6706C2.48757 13.6808 7.98679 13.7517 13.6539 12.0556C13.9788 12.6914 14.2891 13.3368 14.5739 13.9815C10.4704 15.1373 6.74211 18.4561 4.90263 21.605C3.09014 19.5932 1.98529 16.932 1.98529 14.0174ZM6.3678 22.9699C7.55318 20.5467 10.7702 17.4187 15.3453 15.8579C16.9385 19.9981 17.5973 23.4679 17.7661 24.4635C14.1172 26.0178 9.72957 25.5914 6.3678 22.9699V22.9699ZM19.6739 23.4246C19.5576 22.7343 18.9536 19.4123 17.4693 15.3336C21.0254 14.7643 24.1497 15.6961 24.5379 15.8187C24.0321 18.9762 22.2197 21.7032 19.6739 23.4246Z" fill="white"/>
</svg>
