<svg width="28" height="28" viewBox="0 0 28 28" fill="none" xmlns="http://www.w3.org/2000/svg">
<path d="M6.51311 27.7142V9.20821H0.632592V27.7142H6.51311ZM3.57361 6.68001C5.62425 6.68001 6.90068 5.25897 6.90068 3.48313C6.86247 1.66725 5.62433 0.285645 3.61253 0.285645C1.60104 0.285645 0.285645 1.66728 0.285645 3.48313C0.285645 5.25905 1.56176 6.68001 3.53522 6.68001H3.57343H3.57361ZM9.76796 27.7142H15.6485V17.3796C15.6485 16.8265 15.6867 16.274 15.842 15.8786C16.2671 14.7735 17.2347 13.629 18.8591 13.629C20.987 13.629 21.8383 15.326 21.8383 17.8138V27.7141H27.7185V17.1029C27.7185 11.4186 24.8173 8.77375 20.9483 8.77375C17.776 8.77375 16.3831 10.6285 15.6094 11.8918H15.6486V9.20783H9.76809C9.84526 10.9443 9.76809 27.7139 9.76809 27.7139L9.76796 27.7142Z" fill="white"/>
</svg>
