<svg width="56" height="56" viewBox="0 0 56 56" fill="none" xmlns="http://www.w3.org/2000/svg">
<path d="M39.0539 32.7067C37.9924 31.6324 38.3124 30.1273 39.3393 29.3571C40.2678 28.6607 42.853 28.3652 44.1418 31.0867C44.1418 31.0867 48.1204 28.5305 48.1204 28.4939C44.4286 21.6428 33.1786 23.9643 33.4221 31.2367C33.4 35.0626 35.5169 37.352 40.4239 39.2684C41.9896 39.906 43.3269 40.515 43.9577 41.2123C44.689 42.0205 44.7403 43.56 43.8448 44.3815C42.0332 46.0392 38.0714 45.7053 36.0048 42.2699C35.9579 42.2699 31.958 44.5827 31.8752 44.6607C34.3214 50.0982 43.2946 51.6518 47.6907 47.5851C49.3571 46.1071 50.5999 42.1328 48.5982 38.8214C45.3304 34.6118 42.454 35.3444 39.0539 32.7067ZM29.023 43.5103C29.0541 43.2205 29.023 24.7267 29.023 24.7267H23.9721L23.972 42.4107C23.972 45.8214 20.9018 45.4464 20.0124 45.038C19.2403 44.6834 18.7274 44.0276 17.9429 42.6935C17.9222 42.7038 13.8183 45.1873 13.8183 45.1873C15.909 49.7149 20.7641 50.476 24.6428 49.3571C28.2912 48.3047 29.0302 44.3328 29.023 43.5103ZM49.4829 55.4286H6.51711C3.23901 55.4286 0.571411 52.7617 0.571411 49.4829V6.51711C0.571411 3.23901 3.23901 0.571411 6.51711 0.571411H49.4829C52.7616 0.571411 55.4286 3.23901 55.4286 6.51711V49.4829C55.4286 52.7616 52.7616 55.4286 49.4829 55.4286ZM6.51711 3.33076C4.7601 3.33076 3.33076 4.7601 3.33076 6.51711V49.4829C3.33076 51.2399 4.7601 52.6692 6.51711 52.6692H49.4829C51.2399 52.6692 52.6692 51.2399 52.6692 49.4829V6.51711C52.6692 4.7601 51.2399 3.33076 49.4829 3.33076L6.51711 3.33076Z" fill="white"/>
</svg>
