<svg width="28" height="28" viewBox="0 0 28 28" fill="none" xmlns="http://www.w3.org/2000/svg">
<path d="M15.7571 14.0003C15.7571 21.5744 12.2937 27.7143 8.02158 27.7143C3.74946 27.7143 0.285767 21.573 0.285767 14.0003C0.285767 6.42759 3.74919 0.285767 8.02158 0.285767C12.294 0.285767 15.7571 6.4262 15.7571 14.0003ZM24.2433 14.0003C24.2433 21.1296 22.5116 26.9114 20.3754 26.9114C18.2392 26.9114 16.5075 21.1296 16.5075 14.0003C16.5075 6.87092 18.2389 1.08913 20.3751 1.08913C22.5113 1.08913 24.243 6.86907 24.243 14.0003H24.2433ZM27.7143 14.0003C27.7143 20.3864 27.1054 25.5666 26.354 25.5666C25.6026 25.5666 24.9939 20.3878 24.9939 14.0003C24.9939 7.61273 25.6029 2.43392 26.354 2.43392C27.1051 2.43392 27.7143 7.61227 27.7143 14.0003" fill="white"/>
</svg>
