<svg width="48" height="52" viewBox="0 0 48 52" fill="none" xmlns="http://www.w3.org/2000/svg">
<path d="M31.6362 24.697V24.7564L31.6934 24.7723L45.2385 28.5349C45.7631 28.6818 46.2253 28.9959 46.5549 29.4295C46.8845 29.8632 47.0635 30.3926 47.0647 30.9373V51.6361H19.6508L1.62568 31.6801L1.56786 31.7323L1.62568 31.68C1.39074 31.42 1.2227 31.1066 1.1361 30.767C1.0495 30.4274 1.04696 30.0718 1.12868 29.731C1.2104 29.3902 1.37394 29.0744 1.60513 28.811C1.83633 28.5476 2.12822 28.3445 2.45555 28.2193L2.46691 28.215L2.47642 28.2074C4.45224 26.6279 6.97117 25.8913 9.48669 26.1572C12.0022 26.4232 14.3114 27.6703 15.9132 29.628L15.9737 29.5785L15.9132 29.628L17.8947 32.0494L17.9182 32.0781H17.9552H20.5714H20.6495V32V23.82V23.7718L20.6064 23.7502C18.1206 22.5036 16.1282 20.4545 14.9518 17.9346C13.7755 15.4148 13.4839 12.5716 14.1245 9.8655C14.765 7.15935 16.3001 4.74857 18.4812 3.02343C20.6624 1.29828 23.3619 0.359741 26.1429 0.359741C28.9238 0.359741 31.6233 1.29828 33.8045 3.02343C35.9856 4.74857 37.5207 7.15935 38.1612 9.8655C38.8018 12.5716 38.5102 15.4148 37.3339 17.9346C36.1575 20.4545 34.1651 22.5036 31.6793 23.7502L31.6362 23.7718V23.82V24.697ZM31.6362 19.775V19.936L17.1429 12.7142L17.0647 12.7142C17.0647 12.7143 17.0647 12.7143 17.0647 12.7143C17.0648 14.0857 17.3761 15.4392 17.9751 16.6729C18.5742 17.9066 19.4454 18.9882 20.5231 19.8364L20.6495 19.9359V19.775V12.7142C20.6495 11.2573 21.2283 9.86009 22.2585 8.82989C23.2887 7.7997 24.6859 7.22094 26.1429 7.22094C27.5998 7.22094 28.997 7.7997 30.0272 8.82989C31.0574 9.86009 31.6362 11.2573 31.6362 12.7142V19.775ZM43.7143 48.3638H43.7924V48.2857V31.5886V31.5293L43.7352 31.5134L28.3638 27.2435V12.7142C28.3638 12.1252 28.1298 11.5603 27.7133 11.1438C27.2968 10.7273 26.7319 10.4933 26.1429 10.4933C25.5538 10.4933 24.9889 10.7273 24.5724 11.1438C24.1559 11.5603 23.9219 12.1252 23.9219 12.7142V35.3504H16.3679L13.3807 31.6998L13.3202 31.7492L13.3807 31.6998C12.3902 30.4897 10.9874 29.6883 9.44188 29.4499C7.89639 29.2114 6.31728 29.5525 5.00809 30.4078L4.9316 30.4577L4.99284 30.5255L21.0813 48.338L21.1046 48.3638H21.1393H43.7143Z" fill="white" stroke="white" stroke-width="0.15625"/>
</svg>
