<svg width="56" height="56" viewBox="0 0 56 56" fill="none" xmlns="http://www.w3.org/2000/svg">
<path d="M47.7786 32.0857C45.8607 32.1 44.2 32.7143 42.8071 33.6286C42.2928 32.2715 41.7786 31.0857 41.6928 30.2C41.5964 29.1715 41.4786 28.5429 41.5964 27.3143C41.7143 26.0857 42.25 24.3429 42.25 24.2C42.2393 24.0715 42.1321 23.4429 41.0286 23.4286C39.925 23.4143 38.9714 23.7143 38.8643 24.1C38.7571 24.4857 38.5428 25.3715 38.4036 26.2857C38.2107 27.6286 36.1964 32.3857 35.05 34.8857C34.675 33.9143 34.3536 33.0572 34.2893 32.3715C34.1928 31.3429 34.075 30.7143 34.1928 29.4857C34.3107 28.2572 34.8464 26.5143 34.8464 26.3715C34.8357 26.2429 34.7286 25.6143 33.625 25.6C32.5214 25.5857 31.5678 25.8857 31.4607 26.2715C31.3536 26.6572 31.2357 27.5715 31 28.4572C30.775 29.3429 28.0964 37.2858 27.4 39.3572C27.0464 40.4143 26.7357 41.2572 26.5107 41.8286C26.2857 42.4 26.5 41.8715 26.4786 41.9286C26.2857 42.4143 26.1786 42.6857 26.1786 42.6857V42.7C26.0286 43.0572 25.8678 43.4 25.7928 43.4C25.7393 43.4 25.6321 42.4429 25.8143 41.1286C26.2107 38.3715 27.175 34.0715 27.1643 33.9143C27.1643 33.8429 27.3464 33.0857 26.5428 32.7C25.7607 32.3143 25.4821 32.9572 25.4178 32.9572C25.3536 32.9572 25.3 33.1857 25.3 33.1857C25.3 33.1857 26.1678 28.3429 23.6393 28.3429C22.0536 28.3429 19.8678 30.6429 18.7857 32.7429C18.1 33.2429 16.6428 34.3 15.1 35.4286C14.5107 35.8572 13.9 36.3143 13.3214 36.7286L13.2036 36.5572C10.1393 32.2 4.47141 29.1143 4.70713 23.2572C4.79284 21.1286 5.34998 15.5143 15.5928 8.71432C23.9821 3.14289 30.7 4.67146 31.8678 8.07146C33.5286 12.9286 28.2786 21.9572 19.5571 23.2572C16.2357 23.7572 14.4893 22.0429 14.05 21.4C13.5893 20.7286 13.525 20.7 13.3536 20.8286C13.075 21.0286 13.2464 21.6286 13.3536 21.9857C13.6107 22.8857 14.6821 24.4857 16.5036 25.2857C18.1 25.9857 22 26.3715 26.7143 23.9429C31.9964 21.2143 36.1214 13.6429 34.9107 7.31432C33.6786 0.871463 25.6643 -1.24282 18.0893 2.34289C13.5786 4.48575 8.69284 7.82861 5.17856 12.2143C0.999985 17.4143 0.335699 21.9572 0.614271 23.8429C1.58927 30.5715 8.54284 34.9572 11.3286 38.2C11.1893 38.3 11.0607 38.4 10.9428 38.4857C9.54999 39.4 4.24641 43.1 2.91784 47.0143C1.41784 51.4429 3.15356 54.6286 4.3107 55.0572C7.88927 56.3858 11.5536 54 13.5357 50.0715C15.5071 46.1429 15.2714 41.0429 14.3607 38.7143L14.3286 38.6286L15.4214 37.7715C16.1286 37.2143 16.825 36.7 17.4357 36.2572C17.0928 37.5 16.8464 38.9715 16.7178 41.1143C16.5678 43.6286 17.3393 46.8858 18.3571 48.1715C18.8071 48.7286 19.3428 48.7429 19.675 48.7429C20.8536 48.7429 21.3893 47.4429 21.9786 45.8858C22.7071 43.9858 23.35 41.7858 23.35 41.7858C23.35 41.7858 22.5464 47.7429 24.7428 47.7429C25.5464 47.7429 26.35 46.3572 26.7143 45.6429V45.6572C26.7143 45.6572 26.7357 45.6143 26.7786 45.5143C26.8643 45.3429 26.9071 45.2429 26.9071 45.2429V45.2143C27.2286 44.4715 27.9464 42.7715 29.0178 39.9572C30.4 36.3286 31.7286 31.7857 31.7286 31.7857C31.7286 31.7857 31.8571 32.9 32.2536 34.7286C32.4893 35.8143 33.0036 37 33.4 38.1572C33.0786 38.7572 32.8857 39.1 32.8857 39.1L32.8964 39.1143C32.6393 39.5715 32.35 40.0572 32.05 40.5429C30.9571 42.2857 29.65 44.2715 29.4786 44.8429C29.275 45.5143 29.3178 46.0143 29.7143 46.4143C30.0036 46.7 30.5178 46.7572 31.0643 46.7C32.05 46.6143 32.7357 46.2858 33.0786 46.0858C33.6143 45.8286 34.225 45.4429 34.8143 44.8715C35.8857 43.8143 36.5393 42.3143 36.475 40.3143C36.4428 39.2143 36.175 38.1286 35.8428 37.1C35.9393 36.9143 36.0357 36.7286 36.1321 36.5286C37.825 33.2286 39.1321 29.6 39.1321 29.6C39.1321 29.6 39.2607 30.7143 39.6571 32.5429C39.8607 33.4715 40.2678 34.4857 40.6321 35.4857C39.0464 37.2143 38.05 39.2143 37.7071 40.5286C37.075 42.9572 37.5678 44.0572 38.5 44.3143C38.9178 44.4286 39.5178 44.1715 39.9678 43.9143C40.525 43.6715 41.2 43.2572 41.8214 42.6429C42.8928 41.5858 43.9214 40.1143 43.8678 38.1286C43.8357 37.2143 43.6536 36.3143 43.4071 35.4572C44.7571 34.7143 46.5036 34.2857 48.7214 34.6429C53.4893 35.3857 54.4321 39.3572 54.25 41.0143C54.0678 42.6715 53.0714 43.5858 52.7393 43.8715C52.4071 44.1429 52.3 44.2429 52.3321 44.4429C52.375 44.7429 52.525 44.7286 52.8143 44.6715C53.2107 44.5858 55.3214 43.3143 55.4071 40.2572C55.5357 36.3286 52.7393 32.0429 47.7786 32.0857V32.0857ZM11.0071 48.6143C9.43213 50.9143 7.21427 51.7857 6.27141 51.0429C5.25356 50.2572 5.64999 46.8715 7.58927 44.4286C8.76784 42.9429 10.3 41.5715 11.3071 40.7286C11.5321 40.5429 11.875 40.2715 12.2821 39.9429C12.3464 39.8858 12.3893 39.8572 12.3893 39.8572C12.4643 39.8 12.55 39.7286 12.6357 39.6572C13.3536 43.1429 12.6678 46.2 11.0071 48.6143V48.6143ZM22.525 38.1715C21.9786 39.9572 20.8214 44.5429 20.125 44.2858C19.525 44.0715 19.1607 40.6 20.0071 37.1715C20.4357 35.4429 21.3464 33.3857 21.8821 32.5857C22.75 31.3 23.6928 30.8715 23.9286 31.4C24.2071 32.0857 22.8678 37.0572 22.525 38.1715ZM32.0286 44.2286C31.7928 44.3858 31.5786 44.5 31.4821 44.4143C31.4071 44.3572 31.5786 44.1429 31.5786 44.1429C31.5786 44.1429 32.7678 42.4429 33.2393 41.6572C33.5071 41.2 33.8286 40.6715 34.1714 40.0715V40.2429C34.1714 42.3 32.6928 43.6715 32.0286 44.2286V44.2286ZM39.3571 42C39.1857 41.8286 39.2071 41.3 39.7857 39.6429C40.0107 38.9858 40.525 37.8857 41.4143 36.8429C41.5214 37.2715 41.5857 37.6858 41.575 38.0715C41.5643 40.6429 40.1928 41.6 39.3571 42Z" fill="white"/>
</svg>
