<svg width="52" height="52" viewBox="0 0 52 52" fill="none" xmlns="http://www.w3.org/2000/svg">
<path d="M26 3.14282C13.376 3.14282 3.14282 13.376 3.14282 26C3.14282 38.624 13.376 48.8571 26 48.8571C38.624 48.8571 48.8571 38.624 48.8571 26C48.8571 13.376 38.624 3.14282 26 3.14282Z" stroke="white" stroke-width="5" stroke-linecap="round" stroke-linejoin="round"/>
<path d="M16.8571 46.9554V30.5714L25.9999 14.5714L35.1428 30.5714V46.9554" stroke="white" stroke-width="5" stroke-linecap="round" stroke-linejoin="round"/>
<path d="M16.8571 30.5714C16.8571 30.5714 19.4331 32.8571 21.4285 32.8571C23.4239 32.8571 25.9999 30.5714 25.9999 30.5714C25.9999 30.5714 28.5759 32.8571 30.5713 32.8571C32.5668 32.8571 35.1428 30.5714 35.1428 30.5714" stroke="white" stroke-width="5" stroke-linecap="round" stroke-linejoin="round"/>
</svg>
