<svg width="52" height="52" viewBox="0 0 52 52" fill="none" xmlns="http://www.w3.org/2000/svg">
<path d="M49.9571 41.3981L41.2695 32.7105L34.5872 29.9498C36.8122 26.7856 38.0042 23.0109 37.9999 19.1428C37.9999 8.74489 29.5407 0.285645 19.1428 0.285645C8.74489 0.285645 0.285645 8.74489 0.285645 19.1428C0.285645 29.5407 8.74489 37.9999 19.1428 37.9999C23.0445 38.0044 26.8505 36.7917 30.0305 34.531L32.7841 41.1953L41.4714 49.8833C42.0285 50.4404 42.6899 50.8824 43.4179 51.184C44.1459 51.4855 44.9261 51.6408 45.714 51.6408C46.502 51.6408 47.2822 51.4856 48.0102 51.1841C48.7382 50.8826 49.3996 50.4407 49.9568 49.8835C50.514 49.3264 50.956 48.6649 51.2575 47.937C51.5591 47.209 51.7143 46.4288 51.7143 45.6409C51.7144 44.8529 51.5592 44.0727 51.2577 43.3447C50.9562 42.6167 50.5142 41.9553 49.9571 41.3981V41.3981ZM3.71422 19.1428C3.71422 10.6356 10.6356 3.71422 19.1428 3.71422C27.6499 3.71422 34.5714 10.6356 34.5714 19.1428C34.5714 27.6499 27.6499 34.5714 19.1428 34.5714C10.6356 34.5714 3.71422 27.6499 3.71422 19.1428ZM47.5325 47.4589C47.0499 47.9405 46.396 48.2109 45.7142 48.2109C45.0325 48.2109 44.3785 47.9405 43.8959 47.4589L35.6918 39.2548L33.1317 33.0582L39.3285 35.6183L47.5328 43.8224C48.0142 44.305 48.2846 44.959 48.2846 45.6407C48.2845 46.3224 48.0141 46.9763 47.5325 47.4589V47.4589Z" fill="white"/>
</svg>
