<svg width="48" height="48" viewBox="0 0 48 48" fill="none" xmlns="http://www.w3.org/2000/svg">
<path fill-rule="evenodd" clip-rule="evenodd" d="M48 0H41.1429V6.85714H48V0ZM48 10.2857H41.1429V17.1429H48V10.2857ZM37.7143 0H30.8571V6.85714H37.7143V0ZM37.7143 10.2857H30.8571V17.1429H37.7143V10.2857ZM44.5714 34.2857V24H48V34.2857C48 35.195 47.6388 36.0671 46.9958 36.7101C46.3528 37.3531 45.4807 37.7143 44.5714 37.7143H30.8571V44.5714H37.7143V48H10.2857V44.5714H17.1429V37.7143H3.42857C2.51926 37.7143 1.64719 37.3531 1.00421 36.7101C0.361223 36.0671 0 35.195 0 34.2857V6.85714C0 5.94783 0.361223 5.07576 1.00421 4.43278C1.64719 3.78979 2.51926 3.42857 3.42857 3.42857H24V6.85714H3.42857V34.2857H44.5714ZM20.5714 37.7143V44.5714H27.4286V37.7143H20.5714Z" fill="white"/>
</svg>
