<svg width="450" height="450" viewBox="0 0 450 450" fill="none" xmlns="http://www.w3.org/2000/svg">
<path fill-rule="evenodd" clip-rule="evenodd" d="M299.419 18.1687C300.725 16.8592 302.277 15.8201 303.985 15.1112C305.694 14.4023 307.525 14.0374 309.375 14.0374C311.225 14.0374 313.056 14.4023 314.765 15.1112C316.473 15.8201 318.025 16.8592 319.331 18.1687L431.831 130.669C433.141 131.975 434.18 133.527 434.889 135.235C435.598 136.944 435.963 138.775 435.963 140.625C435.963 142.475 435.598 144.306 434.889 146.015C434.18 147.723 433.141 149.275 431.831 150.581L378.338 204.075L355.022 297.253C353.249 304.348 349.662 310.86 344.613 316.151C339.564 321.441 333.226 325.329 326.222 327.431L35.2688 414.731L122.569 123.75C124.673 116.754 128.558 110.425 133.843 105.381C139.128 100.338 145.632 96.753 152.719 94.9781L245.897 71.6906L299.419 18.1687ZM248.794 99.9562L159.553 122.259C157.184 122.851 155.01 124.048 153.245 125.735C151.479 127.422 150.183 129.539 149.484 131.878L77.2032 372.769L318.15 300.487C320.476 299.783 322.579 298.487 324.255 296.728C325.931 294.968 327.122 292.804 327.713 290.447L350.044 201.178L248.794 99.9281V99.9562Z" fill="#201F2A"/>
<path fill-rule="evenodd" clip-rule="evenodd" d="M79.6501 372.038L225 253.125C230.563 253.125 236 251.476 240.625 248.385C245.251 245.295 248.855 240.902 250.984 235.763C253.113 230.624 253.67 224.969 252.585 219.513C251.499 214.057 248.821 209.046 244.887 205.113C240.954 201.179 235.943 198.501 230.487 197.415C225.031 196.33 219.376 196.887 214.237 199.016C209.098 201.145 204.705 204.749 201.615 209.375C198.525 214 196.875 219.437 196.875 225L77.9626 370.35L77.2313 372.769L79.6501 372.038V372.038Z" fill="#201F2A"/>
</svg>
