<svg width="255" height="62" viewBox="0 0 255 62" fill="none" xmlns="http://www.w3.org/2000/svg">
<path d="M2.82 40.824L0.972 43.296C1.228 43.488 1.564 43.68 1.98 43.872C2.38 44.064 2.844 44.232 3.372 44.376C3.884 44.52 4.42 44.592 4.98 44.592C5.668 44.592 6.308 44.512 6.9 44.352C7.508 44.192 8.036 43.936 8.484 43.584C8.948 43.248 9.3 42.808 9.54 42.264C9.796 41.736 9.924 41.096 9.924 40.344V22.2H6.324V39.624C6.324 40.36 6.148 40.88 5.796 41.184C5.46 41.488 5.108 41.64 4.74 41.64C4.356 41.64 3.996 41.56 3.66 41.4C3.324 41.256 3.044 41.064 2.82 40.824ZM12.0342 33.48C12.0342 34.616 12.2982 35.624 12.8262 36.504C13.3702 37.368 14.0982 38.04 15.0102 38.52C15.9382 39 16.9862 39.24 18.1542 39.24C19.3222 39.24 20.3622 39 21.2742 38.52C22.2022 38.04 22.9302 37.368 23.4582 36.504C24.0022 35.624 24.2742 34.616 24.2742 33.48C24.2742 32.328 24.0022 31.32 23.4582 30.456C22.9302 29.592 22.2022 28.92 21.2742 28.44C20.3622 27.96 19.3222 27.72 18.1542 27.72C16.9862 27.72 15.9382 27.96 15.0102 28.44C14.0982 28.92 13.3702 29.592 12.8262 30.456C12.2982 31.32 12.0342 32.328 12.0342 33.48ZM15.2022 33.48C15.2022 32.856 15.3302 32.304 15.5862 31.824C15.8582 31.344 16.2182 30.976 16.6662 30.72C17.1142 30.464 17.6102 30.336 18.1542 30.336C18.6982 30.336 19.1942 30.464 19.6422 30.72C20.0902 30.976 20.4422 31.344 20.6982 31.824C20.9702 32.304 21.1062 32.856 21.1062 33.48C21.1062 34.104 20.9702 34.656 20.6982 35.136C20.4422 35.6 20.0902 35.968 19.6422 36.24C19.1942 36.496 18.6982 36.624 18.1542 36.624C17.6102 36.624 17.1142 36.496 16.6662 36.24C16.2182 35.968 15.8582 35.6 15.5862 35.136C15.3302 34.656 15.2022 34.104 15.2022 33.48ZM29.1543 27.96H26.1063V39H29.1543V27.96ZM32.3943 31.2L33.8103 28.56C33.5863 28.272 33.2903 28.056 32.9223 27.912C32.5703 27.768 32.1943 27.696 31.7943 27.696C31.2183 27.696 30.6583 27.904 30.1143 28.32C29.5703 28.72 29.1303 29.264 28.7943 29.952C28.4583 30.624 28.2903 31.4 28.2903 32.28L29.1543 33.144C29.1543 32.616 29.2183 32.168 29.3463 31.8C29.4903 31.416 29.6983 31.12 29.9703 30.912C30.2423 30.704 30.5703 30.6 30.9543 30.6C31.2743 30.6 31.5383 30.656 31.7463 30.768C31.9703 30.864 32.1863 31.008 32.3943 31.2ZM34.0783 39.768C34.1423 40.728 34.3983 41.576 34.8463 42.312C35.3103 43.064 35.9743 43.64 36.8383 44.04C37.7023 44.456 38.7743 44.664 40.0543 44.664C41.1103 44.664 42.0863 44.456 42.9823 44.04C43.8783 43.64 44.5903 43 45.1183 42.12C45.6623 41.24 45.9343 40.12 45.9343 38.76V27.96H42.9343V38.76C42.9343 39.512 42.7903 40.136 42.5023 40.632C42.2303 41.128 41.8623 41.496 41.3983 41.736C40.9503 41.976 40.4703 42.096 39.9583 42.096C39.3983 42.096 38.9103 42 38.4943 41.808C38.0783 41.616 37.7503 41.344 37.5103 40.992C37.2703 40.656 37.1423 40.248 37.1263 39.768H34.0783ZM33.8623 33.384C33.8623 34.6 34.1103 35.632 34.6063 36.48C35.1023 37.312 35.7583 37.944 36.5743 38.376C37.3903 38.808 38.2543 39.024 39.1663 39.024C40.0943 39.024 40.9103 38.808 41.6143 38.376C42.3343 37.928 42.8943 37.28 43.2943 36.432C43.7103 35.584 43.9183 34.568 43.9183 33.384C43.9183 32.184 43.7103 31.168 43.2943 30.336C42.8943 29.488 42.3343 28.84 41.6143 28.392C40.9103 27.944 40.0943 27.72 39.1663 27.72C38.2543 27.72 37.3903 27.936 36.5743 28.368C35.7583 28.8 35.1023 29.44 34.6063 30.288C34.1103 31.12 33.8623 32.152 33.8623 33.384ZM37.0783 33.384C37.0783 32.712 37.2143 32.152 37.4863 31.704C37.7583 31.24 38.1263 30.888 38.5903 30.648C39.0543 30.408 39.5503 30.288 40.0783 30.288C40.4303 30.288 40.7743 30.36 41.1103 30.504C41.4463 30.632 41.7503 30.824 42.0223 31.08C42.3103 31.336 42.5343 31.656 42.6943 32.04C42.8543 32.424 42.9343 32.872 42.9343 33.384C42.9343 34.056 42.7903 34.624 42.5023 35.088C42.2303 35.536 41.8703 35.88 41.4223 36.12C40.9903 36.344 40.5423 36.456 40.0783 36.456C39.5503 36.456 39.0543 36.336 38.5903 36.096C38.1263 35.856 37.7583 35.512 37.4863 35.064C37.2143 34.6 37.0783 34.04 37.0783 33.384ZM53.6581 39.24C54.9861 39.24 56.1221 38.984 57.0661 38.472C58.0261 37.944 58.7941 37.16 59.3701 36.12L56.6581 35.28C56.3381 35.808 55.9301 36.208 55.4341 36.48C54.9541 36.736 54.3701 36.864 53.6821 36.864C53.0741 36.864 52.5541 36.728 52.1221 36.456C51.6901 36.184 51.3621 35.792 51.1381 35.28C50.9301 34.768 50.8261 34.144 50.8261 33.408C50.8421 32.64 50.9541 32 51.1621 31.488C51.3861 30.96 51.6981 30.568 52.0981 30.312C52.5141 30.04 53.0261 29.904 53.6341 29.904C54.1301 29.904 54.5621 30.016 54.9301 30.24C55.2981 30.464 55.5781 30.768 55.7701 31.152C55.9781 31.536 56.0821 32 56.0821 32.544C56.0821 32.656 56.0501 32.8 55.9861 32.976C55.9381 33.136 55.8821 33.264 55.8181 33.36L56.6581 32.256H49.4821V34.176H59.3701C59.3861 34.08 59.3941 33.952 59.3941 33.792C59.4101 33.632 59.4181 33.48 59.4181 33.336C59.4181 32.152 59.1941 31.144 58.7461 30.312C58.2981 29.464 57.6421 28.824 56.7781 28.392C55.9301 27.944 54.8981 27.72 53.6821 27.72C52.4661 27.72 51.4101 27.96 50.5141 28.44C49.6181 28.904 48.9221 29.568 48.4261 30.432C47.9461 31.28 47.7061 32.296 47.7061 33.48C47.7061 34.648 47.9461 35.664 48.4261 36.528C48.9221 37.376 49.6181 38.04 50.5141 38.52C51.4101 39 52.4581 39.24 53.6581 39.24ZM66.5659 25.296H71.0779V39H74.5099V25.296H79.0459V22.2H66.5659V25.296ZM83.0253 39.24C84.3533 39.24 85.4893 38.984 86.4333 38.472C87.3933 37.944 88.1613 37.16 88.7373 36.12L86.0253 35.28C85.7053 35.808 85.2973 36.208 84.8013 36.48C84.3213 36.736 83.7373 36.864 83.0493 36.864C82.4413 36.864 81.9213 36.728 81.4893 36.456C81.0573 36.184 80.7293 35.792 80.5053 35.28C80.2973 34.768 80.1933 34.144 80.1933 33.408C80.2093 32.64 80.3213 32 80.5293 31.488C80.7533 30.96 81.0653 30.568 81.4653 30.312C81.8813 30.04 82.3933 29.904 83.0013 29.904C83.4973 29.904 83.9293 30.016 84.2973 30.24C84.6653 30.464 84.9453 30.768 85.1373 31.152C85.3453 31.536 85.4493 32 85.4493 32.544C85.4493 32.656 85.4173 32.8 85.3533 32.976C85.3053 33.136 85.2493 33.264 85.1853 33.36L86.0253 32.256H78.8493V34.176H88.7373C88.7533 34.08 88.7613 33.952 88.7613 33.792C88.7773 33.632 88.7853 33.48 88.7853 33.336C88.7853 32.152 88.5613 31.144 88.1133 30.312C87.6653 29.464 87.0093 28.824 86.1453 28.392C85.2973 27.944 84.2653 27.72 83.0493 27.72C81.8333 27.72 80.7773 27.96 79.8813 28.44C78.9853 28.904 78.2893 29.568 77.7933 30.432C77.3133 31.28 77.0732 32.296 77.0732 33.48C77.0732 34.648 77.3133 35.664 77.7933 36.528C78.2893 37.376 78.9853 38.04 79.8813 38.52C80.7773 39 81.8253 39.24 83.0253 39.24ZM90.4858 23.688C90.4858 24.184 90.6698 24.6 91.0378 24.936C91.4058 25.272 91.8458 25.44 92.3578 25.44C92.8698 25.44 93.3018 25.272 93.6538 24.936C94.0218 24.6 94.2058 24.184 94.2058 23.688C94.2058 23.176 94.0218 22.76 93.6538 22.44C93.3018 22.104 92.8698 21.936 92.3578 21.936C91.8458 21.936 91.4058 22.104 91.0378 22.44C90.6698 22.76 90.4858 23.176 90.4858 23.688ZM90.8218 27.96V39H93.8458V27.96H90.8218ZM103.365 27.96L101.109 31.152L98.9014 27.96H95.3494L99.4774 33.312L95.1094 39H98.6614L101.109 35.496L103.605 39H107.037L102.717 33.312L106.797 27.96H103.365ZM112.932 39.24C114.26 39.24 115.396 38.984 116.34 38.472C117.3 37.944 118.068 37.16 118.644 36.12L115.932 35.28C115.612 35.808 115.204 36.208 114.708 36.48C114.228 36.736 113.644 36.864 112.956 36.864C112.348 36.864 111.828 36.728 111.396 36.456C110.964 36.184 110.636 35.792 110.412 35.28C110.204 34.768 110.1 34.144 110.1 33.408C110.116 32.64 110.228 32 110.436 31.488C110.66 30.96 110.972 30.568 111.372 30.312C111.788 30.04 112.3 29.904 112.908 29.904C113.404 29.904 113.836 30.016 114.204 30.24C114.572 30.464 114.852 30.768 115.044 31.152C115.252 31.536 115.356 32 115.356 32.544C115.356 32.656 115.324 32.8 115.26 32.976C115.212 33.136 115.156 33.264 115.092 33.36L115.932 32.256H108.756V34.176H118.644C118.66 34.08 118.668 33.952 118.668 33.792C118.684 33.632 118.692 33.48 118.692 33.336C118.692 32.152 118.468 31.144 118.02 30.312C117.572 29.464 116.916 28.824 116.052 28.392C115.204 27.944 114.172 27.72 112.956 27.72C111.74 27.72 110.684 27.96 109.788 28.44C108.892 28.904 108.196 29.568 107.7 30.432C107.22 31.28 106.979 32.296 106.979 33.48C106.979 34.648 107.22 35.664 107.7 36.528C108.196 37.376 108.892 38.04 109.788 38.52C110.684 39 111.732 39.24 112.932 39.24ZM120.392 23.688C120.392 24.184 120.576 24.6 120.944 24.936C121.312 25.272 121.752 25.44 122.264 25.44C122.776 25.44 123.208 25.272 123.56 24.936C123.928 24.6 124.112 24.184 124.112 23.688C124.112 23.176 123.928 22.76 123.56 22.44C123.208 22.104 122.776 21.936 122.264 21.936C121.752 21.936 121.312 22.104 120.944 22.44C120.576 22.76 120.392 23.176 120.392 23.688ZM120.728 27.96V39H123.752V27.96H120.728ZM129.6 27.96H126.552V39H129.6V27.96ZM132.84 31.2L134.256 28.56C134.032 28.272 133.736 28.056 133.368 27.912C133.016 27.768 132.64 27.696 132.24 27.696C131.664 27.696 131.104 27.904 130.56 28.32C130.016 28.72 129.576 29.264 129.24 29.952C128.904 30.624 128.736 31.4 128.736 32.28L129.6 33.144C129.6 32.616 129.664 32.168 129.792 31.8C129.936 31.416 130.144 31.12 130.416 30.912C130.688 30.704 131.016 30.6 131.4 30.6C131.72 30.6 131.984 30.656 132.192 30.768C132.416 30.864 132.632 31.008 132.84 31.2ZM137.611 35.568C137.611 35.248 137.683 34.984 137.827 34.776C137.971 34.552 138.195 34.384 138.499 34.272C138.803 34.144 139.195 34.08 139.675 34.08C140.267 34.08 140.827 34.16 141.355 34.32C141.899 34.48 142.387 34.72 142.819 35.04V33.6C142.659 33.408 142.395 33.208 142.027 33C141.659 32.792 141.203 32.616 140.659 32.472C140.131 32.328 139.515 32.256 138.811 32.256C137.435 32.256 136.371 32.568 135.619 33.192C134.867 33.816 134.491 34.664 134.491 35.736C134.491 36.488 134.667 37.128 135.019 37.656C135.387 38.168 135.867 38.56 136.459 38.832C137.051 39.104 137.691 39.24 138.379 39.24C139.051 39.24 139.691 39.12 140.299 38.88C140.923 38.64 141.427 38.28 141.811 37.8C142.211 37.32 142.411 36.728 142.411 36.024L142.027 34.584C142.027 35.112 141.907 35.568 141.667 35.952C141.427 36.32 141.115 36.608 140.731 36.816C140.347 37.008 139.915 37.104 139.435 37.104C139.099 37.104 138.787 37.048 138.499 36.936C138.227 36.808 138.011 36.632 137.851 36.408C137.691 36.168 137.611 35.888 137.611 35.568ZM136.411 31.08C136.571 30.968 136.819 30.832 137.155 30.672C137.491 30.512 137.891 30.376 138.355 30.264C138.819 30.152 139.307 30.096 139.819 30.096C140.155 30.096 140.459 30.128 140.731 30.192C141.003 30.256 141.235 30.36 141.427 30.504C141.635 30.648 141.787 30.832 141.883 31.056C141.979 31.264 142.027 31.52 142.027 31.824V39H145.027V31.176C145.027 30.424 144.819 29.792 144.403 29.28C143.987 28.752 143.411 28.352 142.675 28.08C141.939 27.808 141.099 27.672 140.155 27.672C139.131 27.672 138.203 27.816 137.371 28.104C136.539 28.376 135.835 28.664 135.259 28.968L136.411 31.08ZM150.898 40.824L149.05 43.296C149.306 43.488 149.642 43.68 150.058 43.872C150.458 44.064 150.922 44.232 151.45 44.376C151.962 44.52 152.498 44.592 153.058 44.592C153.746 44.592 154.386 44.512 154.978 44.352C155.586 44.192 156.114 43.936 156.562 43.584C157.026 43.248 157.378 42.808 157.618 42.264C157.874 41.736 158.002 41.096 158.002 40.344V22.2H154.402V39.624C154.402 40.36 154.226 40.88 153.874 41.184C153.538 41.488 153.186 41.64 152.818 41.64C152.434 41.64 152.074 41.56 151.738 41.4C151.402 41.256 151.122 41.064 150.898 40.824ZM163.904 27.96H160.856V39H163.904V27.96ZM167.144 31.2L168.56 28.56C168.336 28.272 168.04 28.056 167.672 27.912C167.32 27.768 166.944 27.696 166.544 27.696C165.968 27.696 165.408 27.904 164.864 28.32C164.32 28.72 163.88 29.264 163.544 29.952C163.208 30.624 163.04 31.4 163.04 32.28L163.904 33.144C163.904 32.616 163.968 32.168 164.096 31.8C164.24 31.416 164.448 31.12 164.72 30.912C164.992 30.704 165.32 30.6 165.704 30.6C166.024 30.6 166.288 30.656 166.496 30.768C166.72 30.864 166.936 31.008 167.144 31.2ZM168.566 37.584C168.566 38.096 168.75 38.544 169.118 38.928C169.502 39.312 169.974 39.504 170.534 39.504C171.11 39.504 171.582 39.312 171.95 38.928C172.318 38.544 172.502 38.096 172.502 37.584C172.502 37.04 172.318 36.584 171.95 36.216C171.582 35.832 171.11 35.64 170.534 35.64C169.974 35.64 169.502 35.832 169.118 36.216C168.75 36.584 168.566 37.04 168.566 37.584ZM182.332 22.2V39H185.836V22.2H182.332ZM188.044 39C189.804 39 191.34 38.656 192.652 37.968C193.98 37.28 195.012 36.312 195.748 35.064C196.484 33.8 196.852 32.312 196.852 30.6C196.852 28.888 196.484 27.408 195.748 26.16C195.012 24.896 193.98 23.92 192.652 23.232C191.34 22.544 189.804 22.2 188.044 22.2H184.54V25.32H187.924C188.66 25.32 189.356 25.424 190.012 25.632C190.668 25.824 191.244 26.136 191.74 26.568C192.236 27 192.62 27.552 192.892 28.224C193.18 28.88 193.324 29.672 193.324 30.6C193.324 31.528 193.18 32.328 192.892 33C192.62 33.656 192.236 34.2 191.74 34.632C191.244 35.064 190.668 35.384 190.012 35.592C189.356 35.784 188.66 35.88 187.924 35.88H184.54V39H188.044ZM203.932 39.24C205.26 39.24 206.396 38.984 207.34 38.472C208.3 37.944 209.068 37.16 209.644 36.12L206.932 35.28C206.612 35.808 206.204 36.208 205.708 36.48C205.228 36.736 204.644 36.864 203.956 36.864C203.348 36.864 202.828 36.728 202.396 36.456C201.964 36.184 201.636 35.792 201.412 35.28C201.204 34.768 201.1 34.144 201.1 33.408C201.116 32.64 201.228 32 201.436 31.488C201.66 30.96 201.972 30.568 202.372 30.312C202.788 30.04 203.3 29.904 203.908 29.904C204.404 29.904 204.836 30.016 205.204 30.24C205.572 30.464 205.852 30.768 206.044 31.152C206.252 31.536 206.356 32 206.356 32.544C206.356 32.656 206.324 32.8 206.26 32.976C206.212 33.136 206.156 33.264 206.092 33.36L206.932 32.256H199.756V34.176H209.644C209.66 34.08 209.668 33.952 209.668 33.792C209.684 33.632 209.692 33.48 209.692 33.336C209.692 32.152 209.468 31.144 209.02 30.312C208.572 29.464 207.916 28.824 207.052 28.392C206.204 27.944 205.172 27.72 203.956 27.72C202.74 27.72 201.684 27.96 200.788 28.44C199.892 28.904 199.196 29.568 198.7 30.432C198.22 31.28 197.979 32.296 197.979 33.48C197.979 34.648 198.22 35.664 198.7 36.528C199.196 37.376 199.892 38.04 200.788 38.52C201.684 39 202.732 39.24 203.932 39.24ZM212.088 35.184L210.576 37.128C210.992 37.528 211.456 37.904 211.968 38.256C212.496 38.592 213.08 38.864 213.72 39.072C214.376 39.28 215.096 39.384 215.88 39.384C217.144 39.384 218.136 39.08 218.856 38.472C219.576 37.848 219.936 36.984 219.936 35.88C219.936 35.208 219.784 34.664 219.48 34.248C219.176 33.832 218.768 33.488 218.256 33.216C217.76 32.928 217.216 32.672 216.624 32.448C216.144 32.24 215.712 32.064 215.328 31.92C214.96 31.776 214.672 31.616 214.464 31.44C214.272 31.248 214.176 31.032 214.176 30.792C214.176 30.52 214.272 30.32 214.464 30.192C214.672 30.048 214.952 29.976 215.304 29.976C215.832 29.976 216.368 30.112 216.912 30.384C217.472 30.656 217.952 31.008 218.352 31.44L219.72 29.52C219.368 29.168 218.96 28.864 218.496 28.608C218.032 28.336 217.528 28.12 216.984 27.96C216.44 27.8 215.856 27.72 215.232 27.72C214.496 27.72 213.824 27.84 213.216 28.08C212.624 28.304 212.152 28.648 211.8 29.112C211.448 29.56 211.272 30.112 211.272 30.768C211.272 31.456 211.424 32.024 211.728 32.472C212.048 32.904 212.448 33.256 212.928 33.528C213.408 33.784 213.904 34.008 214.416 34.2C214.96 34.376 215.408 34.544 215.76 34.704C216.112 34.864 216.376 35.048 216.552 35.256C216.744 35.448 216.84 35.688 216.84 35.976C216.84 36.296 216.728 36.552 216.504 36.744C216.28 36.92 215.96 37.008 215.544 37.008C215.224 37.008 214.88 36.944 214.512 36.816C214.16 36.688 213.784 36.496 213.384 36.24C212.984 35.968 212.552 35.616 212.088 35.184ZM221.439 23.688C221.439 24.184 221.623 24.6 221.991 24.936C222.359 25.272 222.799 25.44 223.311 25.44C223.823 25.44 224.255 25.272 224.607 24.936C224.975 24.6 225.159 24.184 225.159 23.688C225.159 23.176 224.975 22.76 224.607 22.44C224.255 22.104 223.823 21.936 223.311 21.936C222.799 21.936 222.359 22.104 221.991 22.44C221.623 22.76 221.439 23.176 221.439 23.688ZM221.775 27.96V39H224.799V27.96H221.775ZM227.071 39.768C227.135 40.728 227.391 41.576 227.839 42.312C228.303 43.064 228.967 43.64 229.831 44.04C230.695 44.456 231.767 44.664 233.047 44.664C234.103 44.664 235.079 44.456 235.975 44.04C236.871 43.64 237.583 43 238.111 42.12C238.655 41.24 238.927 40.12 238.927 38.76V27.96H235.927V38.76C235.927 39.512 235.783 40.136 235.495 40.632C235.223 41.128 234.855 41.496 234.391 41.736C233.943 41.976 233.463 42.096 232.951 42.096C232.391 42.096 231.903 42 231.487 41.808C231.071 41.616 230.743 41.344 230.503 40.992C230.263 40.656 230.135 40.248 230.119 39.768H227.071ZM226.854 33.384C226.854 34.6 227.103 35.632 227.599 36.48C228.095 37.312 228.751 37.944 229.567 38.376C230.383 38.808 231.247 39.024 232.159 39.024C233.087 39.024 233.903 38.808 234.607 38.376C235.327 37.928 235.887 37.28 236.287 36.432C236.703 35.584 236.911 34.568 236.911 33.384C236.911 32.184 236.703 31.168 236.287 30.336C235.887 29.488 235.327 28.84 234.607 28.392C233.903 27.944 233.087 27.72 232.159 27.72C231.247 27.72 230.383 27.936 229.567 28.368C228.751 28.8 228.095 29.44 227.599 30.288C227.103 31.12 226.854 32.152 226.854 33.384ZM230.071 33.384C230.071 32.712 230.207 32.152 230.479 31.704C230.751 31.24 231.119 30.888 231.583 30.648C232.047 30.408 232.543 30.288 233.071 30.288C233.423 30.288 233.767 30.36 234.103 30.504C234.439 30.632 234.743 30.824 235.015 31.08C235.303 31.336 235.527 31.656 235.687 32.04C235.847 32.424 235.927 32.872 235.927 33.384C235.927 34.056 235.783 34.624 235.495 35.088C235.223 35.536 234.863 35.88 234.415 36.12C233.983 36.344 233.535 36.456 233.071 36.456C232.543 36.456 232.047 36.336 231.583 36.096C231.119 35.856 230.751 35.512 230.479 35.064C230.207 34.6 230.071 34.04 230.071 33.384ZM248.57 32.28V39H251.786V31.944C251.786 30.616 251.466 29.584 250.826 28.848C250.186 28.096 249.21 27.72 247.898 27.72C247.114 27.72 246.442 27.888 245.882 28.224C245.338 28.544 244.898 29.016 244.562 29.64V27.96H241.442V39H244.562V32.28C244.562 31.816 244.65 31.416 244.826 31.08C245.002 30.744 245.258 30.488 245.594 30.312C245.93 30.12 246.314 30.024 246.746 30.024C247.386 30.024 247.85 30.216 248.138 30.6C248.426 30.984 248.57 31.544 248.57 32.28Z" fill="#34323E"/>
</svg>
